<?xml version="1.0" encoding="utf-8"?>
<!-- Generator: Adobe Illustrator 16.0.0, SVG Export Plug-In . SVG Version: 6.00 Build 0)  -->
<!DOCTYPE svg PUBLIC "-//W3C//DTD SVG 1.1//EN" "http://www.w3.org/Graphics/SVG/1.1/DTD/svg11.dtd">
<svg version="1.1" xmlns="http://www.w3.org/2000/svg" xmlns:xlink="http://www.w3.org/1999/xlink" x="0px" y="0px" width="1416px"
	 height="1688px" viewBox="0 0 1416 1688" enable-background="new 0 0 1416 1688" xml:space="preserve">
<g id="Layer_2">
	<path fill="#FFFFFF" stroke="#FFFFFF" stroke-miterlimit="10" d="M640.535,366.293C724.186,274.214,854,226.708,854,226.708
		l-5.071-9.817L704,114.708c0,0-64-60-60,72s-0.18,168-0.18,168"/>
	
		<path fill="#FFFFFF" stroke="#FFFFFF" stroke-width="16" stroke-linecap="round" stroke-linejoin="round" stroke-miterlimit="10" d="
		M1168,756c56-8,48-36,48-36l32-72c0,0,43.037-24,37.519-108S1280,456,1280,456s-28.441-24.386,0-44
		c0,0-29.525-59.519-32.402-105.608"/>
	<path fill="#FFFFFF" stroke="#FFFFFF" stroke-miterlimit="10" d="M1112.924,205.869c-17.298-6.104-60.113,20.38-72.924,10.131
		c-20-16-28-32-56,0s-40,28-68-8s-99.42,14.834-99.42,14.834s1.499,11.986,80.995-0.183c0,0,12,6.414,50.998,22.192
		s35.998-8.073,59.997-11.146S1191.777,233.698,1112.924,205.869z"/>
	<path fill="#FFFFFF" stroke="#FFFFFF" stroke-miterlimit="10" d="M1093,206c0,0,124.758,65.716,143,98l16.605,17.394l-0.008-0.002
		c-1.348-21.591,2.056-43.526,14.958-61.392C1308,204,1284-4,1156,132c0,0-44-4-48,64c0,0-2.202,4.652-11.076,9.869"/>
	<path fill="#FFFFFF" stroke="#FFFFFF" stroke-miterlimit="10" d="M814,380c0,0,84.555-94.162,144.41-5.587
		c1.207,1.787,2.404,3.649,3.59,5.587c0,0-18,32-26,40s-12,74.588-10,77.294S932,570,932,570s46-12,58,12s38,14,46,10s40-24,46-12
		s0-74,0-74l-19.777-54v-44c0,0-25.777-23.111,0-71.556S1182,372,1182,372s22,46,0,56s-70,48-70,48v32c0,0,42.874,73.787,23,131
		c-11.831,34.059-61,109-61,109l-11.777-12c0,0,47.777-90,49.777-114s-10-38-10-38s-64,92-170,12c0,0-90-108-64,126l-12,16l-42-152
		c0,0,28-30,42-36s52-66,44-96l-98-54L814,380z"/>
	
		<path fill="#FFFFFF" stroke="#FFFFFF" stroke-width="4" stroke-linecap="round" stroke-linejoin="round" stroke-miterlimit="10" d="
		M1265.992,1538.751c0,0-140.434-67.876-76.771-367.905C1252.885,870.816,1219.327,748,1219.327,748"/>
	<path fill="#FFFFFF" stroke="#FFFFFF" stroke-miterlimit="10" d="M665.535,249.613c0,0-234.732-41.863-414.75,102.151
		S136.773,591.788,136.773,591.788S229.782,430.21,310.791,520s87.009-120.231,117.012-138.233S425.055,303.326,665.535,249.613z"/>
	
		<path fill="#FFFFFF" stroke="#FFFFFF" stroke-width="16" stroke-linecap="round" stroke-linejoin="round" stroke-miterlimit="10" d="
		M436.261,967.765c-8.153-63.004-12.117-153.497-11.459-240.963"/>
	
		<path fill="#FFFFFF" stroke="#FFFFFF" stroke-width="16" stroke-linecap="round" stroke-linejoin="round" stroke-miterlimit="10" d="
		M200.831,998.008l35.952-127.192c0,0-87.009,306.032,0,498.05l32.002,150.015"/>
	<path fill="#FFFFFF" stroke="#FFFFFF" stroke-miterlimit="10" d="M200.78,1017.831c-99.01-144.015-60.006-465.047-60.006-465.047
		S186,564,178,608s-28,48-24,88s39.97,59.235,12,84s8,54.566,16,67.283s21.065,51.281,18.992,88.717L200.78,1017.831l6.495-26.519"
		/>
	
		<path fill="#FFFFFF" stroke="#FFFFFF" stroke-width="21" stroke-linecap="round" stroke-linejoin="round" stroke-miterlimit="10" d="
		M976.462,1616.07c0,0-101.615,49.825-149.62,19.822L802,1665.896c0,0-68.828-69.007-94-69.007c0,0-34.018-57.006-17.594-75.008
		l-163.593-267.026"/>
	<path fill="#FFFFFF" stroke="#FFFFFF" stroke-miterlimit="10" d="M251.435,1411.566c15.861,15.359,10.817,45.733,45.627,30.826
		c28.938-12.393,55.604,17.982,71.699-2.394c6.651-8.421,14.065-15.597,21.114-21.483c15.496-12.938,29.232-19.646,29.232-19.646
		c2.934-11.635,12.405-22.322,17.157-33.574c5.306-12.562-30.264-38.295-15.27-79.866c14.663-40.651-9.476-82.866-19.203-93.607
		c-18.994-20.976,0.809-35.743-5.636-58.392c-13.552-47.627,41.106-54.259,41.106-54.259c0,0,24.023,0.854-12.46-40.338
		s12.46-83.069,12.459-83.068c29.043,224.436,98.552,299.09,98.552,299.09c24.002,51.005-45.004,264.026-45.004,264.026
		c-114.012,123.012-228.023,0-228.023,0v-69.007l-11.351-38.31"/>
	<path fill="#FFFFFF" stroke="#FFFFFF" stroke-miterlimit="10" d="M906,1126c0,0,22,0,30-12s26-56,54,8s50,26,50,26s36-48,52,44v60
		c0,0-32,128,24,84c0,0,20-16,24,48c0,0,4,172,92,176c0,0,16-52,60,0c0,0,48-20,60-168c0,0,0-64-32-64c0,0-32,36,12-296
		c0,0,16-44-24-96c0,0-20-52,8-168c0,0,4-80-16-112l-12-136"/>
	<path fill="#FFFFFF" stroke="#FFFFFF" stroke-miterlimit="10" d="M1168,756c-56,8-60,44-60,64s-40,0-40,0l-28,24l-36-24
		c0,0-28-24-28,24c0,7.888-2.269,14.263-6.06,19.41C950.662,889.586,892,884,892,884c-48,0-68,23.5-68,23.5c-20,7.5-16-87.5-16-87.5
		c-12-28-28,0-28,0l-24-57.333C752,733.333,728,736,728,736c-26,37-20,0-20,0l-16.577-36.839L690.406,708l3.017-3.839L674,661
		l-20-68c0,0-4-60-28-68c-19.213-6.404-13.609-23.005,0-33.5L611,473c-1.272,2.427-13.875,18.055-20,23.5
		c-24.5,21.779,8.5,38.197,8.5,38.197l-18.683,36.089c-43.183,50.786,0,43.871,0,43.871l3,34.137c0,0,27.291,99.206-15.001,99.206
		c-27.933,0-67.905,55.164-31.337,88.374C569,865,563.584,877.104,568.816,907.922c6.053,35.646,18.002,46.902,30.684,46.902
		s95.329,51.006,89.328,78.008s15.002,27.003,30.003,35.205s15.001,8.202,33.437,30.802c26.64,32.656,32.57,44.536,32.57,44.536
		c26,30,11.162,30.625,1.162,32.625s-12,28,6,42s6.84,33.868,8,44c2.819,24.618-8,34,16,36s10,36,4,40s-4,34,4,36s22,24,22,24
		s12,24,2,44s-4,26,20,42s20,48,20,56s26,62,74,74s16-32,16-32s-37.1-28-33.55-52s5.55-78-10.45-102l10.45-18c0,0-4.45-34-12.45-38
		s-6-42,0-40s14-20,2-32s2.9-32,10.45-32s14.45-16,0-38S924,1170,924,1170s-26-52,12-56"/>
</g>
<g id="Layer_3">
	<path fill="#51A68E" d="M640.535,366.293C724.186,274.214,854,226.708,854,226.708l-5.071-9.817L704,114.708c0,0-64-60-60,72
		s-0.18,168-0.18,168"/>
	
		<path fill="#FFFFFF" stroke="#51A68E" stroke-width="16" stroke-linecap="round" stroke-linejoin="round" stroke-miterlimit="10" d="
		M1168,756c56-8,48-36,48-36l32-72c0,0,43.037-24,37.519-108S1280,456,1280,456s-28.441-24.386,0-44
		c0,0-29.525-59.519-32.402-105.608"/>
	<path fill="#51A68E" d="M1112.924,205.869c-17.298-6.104-60.113,20.38-72.924,10.131c-20-16-28-32-56,0s-40,28-68-8
		s-99.42,14.834-99.42,14.834s1.499,11.986,80.995-0.183c0,0,12,6.414,50.998,22.192s35.998-8.073,59.997-11.146
		S1191.777,233.698,1112.924,205.869z"/>
	<path fill="#51A68E" d="M1093,206c0,0,124.758,65.716,143,98l16.605,17.394l-0.008-0.002c-1.348-21.591,2.056-43.526,14.958-61.392
		C1308,204,1284-4,1156,132c0,0-44-4-48,64c0,0-2.202,4.652-11.076,9.869"/>
	<path fill="#51A68E" d="M814,380c0,0,84.555-94.162,144.41-5.587c1.207,1.787,2.404,3.649,3.59,5.587c0,0-18,32-26,40
		s-12,74.588-10,77.294S932,570,932,570s46-12,58,12s38,14,46,10s40-24,46-12s0-74,0-74l-19.777-54v-44c0,0-25.777-23.111,0-71.556
		S1182,372,1182,372s22,46,0,56s-70,48-70,48v32c0,0,42.874,73.787,23,131c-11.831,34.059-61,109-61,109l-11.777-12
		c0,0,47.777-90,49.777-114s-10-38-10-38s-64,92-170,12c0,0-90-108-64,126l-12,16l-42-152c0,0,28-30,42-36s52-66,44-96l-98-54
		L814,380z"/>
	<path fill="none" stroke="#AA52A6" stroke-width="4" stroke-linecap="round" stroke-linejoin="round" stroke-miterlimit="10" d="
		M1265.992,1538.751c0,0-140.434-67.876-76.771-367.905C1252.885,870.816,1219.327,748,1219.327,748"/>
	<path fill="#51A68E" d="M665.535,249.613c0,0-234.732-41.863-414.75,102.151S136.773,591.788,136.773,591.788
		S229.782,430.21,310.791,520s87.009-120.231,117.012-138.233S425.055,303.326,665.535,249.613z"/>
	<path fill="none" stroke="#51A68E" stroke-width="16" stroke-linecap="round" stroke-linejoin="round" stroke-miterlimit="10" d="
		M436.261,967.765c-8.153-63.004-12.117-153.497-11.459-240.963"/>
	<path fill="none" stroke="#51A68E" stroke-width="16" stroke-linecap="round" stroke-linejoin="round" stroke-miterlimit="10" d="
		M200.831,998.008l35.952-127.192c0,0-87.009,306.032,0,498.05l32.002,150.015"/>
	<path fill="#51A68E" d="M200.78,1017.831c-99.01-144.015-60.006-465.047-60.006-465.047S186,564,178,608s-28,48-24,88
		s39.97,59.235,12,84s8,54.566,16,67.283s21.065,51.281,18.992,88.717L200.78,1017.831l6.495-26.519"/>
	<path fill="none" stroke="#51A68E" stroke-width="21" stroke-linecap="round" stroke-linejoin="round" stroke-miterlimit="10" d="
		M976.462,1616.07c0,0-101.615,49.825-149.62,19.822L802,1665.896c0,0-68.828-69.007-94-69.007c0,0-34.018-57.006-17.594-75.008
		l-163.593-267.026"/>
	<path fill="#51A68E" d="M251.435,1411.566c15.861,15.359,10.817,45.733,45.627,30.826c28.938-12.393,55.604,17.982,71.699-2.394
		c6.651-8.421,14.065-15.597,21.114-21.483c15.496-12.938,29.232-19.646,29.232-19.646c2.934-11.635,12.405-22.322,17.157-33.574
		c5.306-12.562-30.264-38.295-15.27-79.866c14.663-40.651-9.476-82.866-19.203-93.607c-18.994-20.976,0.809-35.743-5.636-58.392
		c-13.552-47.627,41.106-54.259,41.106-54.259c0,0,24.023,0.854-12.46-40.338s12.46-83.069,12.459-83.068
		c29.043,224.436,98.552,299.09,98.552,299.09c24.002,51.005-45.004,264.026-45.004,264.026c-114.012,123.012-228.023,0-228.023,0
		v-69.007l-11.351-38.31"/>
	<path fill="#51A68E" d="M906,1126c0,0,22,0,30-12s26-56,54,8s50,26,50,26s36-48,52,44v60c0,0-32,128,24,84c0,0,20-16,24,48
		c0,0,4,172,92,176c0,0,16-52,60,0c0,0,48-20,60-168c0,0,0-64-32-64c0,0-32,36,12-296c0,0,16-44-24-96c0,0-20-52,8-168
		c0,0,4-80-16-112l-12-136"/>
	<path fill="#51A68E" d="M1168,756c-56,8-60,44-60,64s-40,0-40,0l-28,24l-36-24c0,0-28-24-28,24c0,7.888-2.269,14.263-6.06,19.41
		C950.662,889.586,892,884,892,884c-48,0-68,23.5-68,23.5c-20,7.5-16-87.5-16-87.5c-12-28-28,0-28,0l-24-57.333
		C752,733.333,728,736,728,736c-26,37-20,0-20,0l-16.577-36.839L690.406,708l3.017-3.839L674,661l-20-68c0,0-4-60-28-68
		c-19.213-6.404-13.609-23.005,0-33.5L611,473c-1.272,2.427-13.875,18.055-20,23.5c-24.5,21.779,8.5,38.197,8.5,38.197
		l-18.683,36.089c-43.183,50.786,0,43.871,0,43.871l3,34.137c0,0,27.291,99.206-15.001,99.206
		c-27.933,0-67.905,55.164-31.337,88.374C569,865,563.584,877.104,568.816,907.922c6.053,35.646,18.002,46.902,30.684,46.902
		s95.329,51.006,89.328,78.008s15.002,27.003,30.003,35.205s15.001,8.202,33.437,30.802c26.64,32.656,32.57,44.536,32.57,44.536
		c26,30,11.162,30.625,1.162,32.625s-12,28,6,42s6.84,33.868,8,44c2.819,24.618-8,34,16,36s10,36,4,40s-4,34,4,36s22,24,22,24
		s12,24,2,44s-4,26,20,42s20,48,20,56s26,62,74,74s16-32,16-32s-37.1-28-33.55-52s5.55-78-10.45-102l10.45-18c0,0-4.45-34-12.45-38
		s-6-42,0-40s14-20,2-32s2.9-32,10.45-32s14.45-16,0-38S924,1170,924,1170s-26-52,12-56"/>
</g>
</svg>
