<?xml version="1.0" encoding="UTF-8" standalone="no"?>
<!-- Generator: Adobe Illustrator 16.0.0, SVG Export Plug-In . SVG Version: 6.00 Build 0)  -->

<svg
   xmlns:dc="http://purl.org/dc/elements/1.1/"
   xmlns:cc="http://creativecommons.org/ns#"
   xmlns:rdf="http://www.w3.org/1999/02/22-rdf-syntax-ns#"
   xmlns:svg="http://www.w3.org/2000/svg"
   xmlns="http://www.w3.org/2000/svg"
   xmlns:sodipodi="http://sodipodi.sourceforge.net/DTD/sodipodi-0.dtd"
   xmlns:inkscape="http://www.inkscape.org/namespaces/inkscape"
   version="1.1"
   x="0px"
   y="0px"
   width="870"
   height="870"
   viewBox="0 0 869.99997 870.00004"
   enable-background="new 0 0 732.072 516.053"
   xml:space="preserve"
   id="svg3915"
   inkscape:version="0.91 r13725"
   sodipodi:docname="line-6-raccoon.svg"><metadata
     id="metadata3947"><rdf:RDF><cc:Work
         rdf:about=""><dc:format>image/svg+xml</dc:format><dc:type
           rdf:resource="http://purl.org/dc/dcmitype/StillImage" /><dc:title></dc:title></cc:Work></rdf:RDF></metadata><defs
     id="defs3945" /><sodipodi:namedview
     pagecolor="#ffffff"
     bordercolor="#666666"
     borderopacity="1"
     objecttolerance="10"
     gridtolerance="10"
     guidetolerance="10"
     inkscape:pageopacity="0"
     inkscape:pageshadow="2"
     inkscape:window-width="1013"
     inkscape:window-height="700"
     id="namedview3943"
     showgrid="false"
     fit-margin-top="0"
     fit-margin-left="0"
     fit-margin-right="0"
     fit-margin-bottom="0"
     inkscape:zoom="0.4234556"
     inkscape:cx="415.03601"
     inkscape:cy="439.97351"
     inkscape:window-x="0"
     inkscape:window-y="0"
     inkscape:window-maximized="0"
     inkscape:current-layer="svg3915" /><circle
     cx="435"
     cy="435"
     r="420"
     style="fill:#CDCDCD;stroke:#ffffff;stroke-width:40"
     id="circle3917" /><g
     id="Layer_6"
     transform="translate(49,172)"><path
       d="m 451.632,101.059 87.601,-25.484 c 14.996,-1.579 19.147,5.948 18.084,16.583"
       id="path3920"
       inkscape:connector-curvature="0"
       style="fill:#ffffff" /><path
       d="m 239.069,157.548 c 8.502,-6.019 16.369,-11.025 16.369,-11.025 l 36.056,-25.588"
       id="path3922"
       inkscape:connector-curvature="0"
       style="fill:#ffffff" /><path
       d="m 282.189,158.154 c 0,0 -34.008,-7.33 -43.12,-0.606 -10.278,7.276 -21.486,16.033 -20.85,19.215 0,0 -1.163,26.504 -67.459,48.145 l -74.438,37.924 c 0,0 -38.382,6.979 -13.957,37.219 0,0 24.425,34.893 37.218,46.524 0,0 20.936,5.815 15.121,17.447 0,0 0,15.12 22.098,16.282 l 73.274,8.142 c 0,0 51.177,9.305 51.177,31.403 0,22.1 43.035,27.915 59.318,29.078 l 25.588,0 c 0,0 16.284,-1.163 16.865,6.979 0,0 3.825,8.142 16.16,0 12.335,-8.142 25.13,3.619 25.13,3.619 l 1.163,11.501 c 0,0 9.305,13.958 24.425,0 0,0 196.562,-118.635 201.215,-122.125 4.652,-3.49 49.005,-29.131 50.013,-40.708 0,0 9.305,-53.503 -27.914,-48.851 -37.219,4.653 -39.545,-19.772 -53.502,-23.261 -13.958,-3.489 -15.121,-32.567 -15.121,-32.567 0,0 -1.163,-26.751 -51.176,-32.566 0,0 -4.652,-12.794 0,-25.588 0,0 21.833,-32.494 23.9,-53.203 1.063,-10.635 -3.088,-18.162 -18.084,-16.583 L 451.632,101.058 428.739,59.29 C 406.204,17.419 386.868,44.17 386.868,44.17 c -18.61,1.164 -95.374,76.765 -95.374,76.765 l -36.056,25.588 c 0,0 -7.867,5.006 -16.369,11.025"
       id="path3924"
       inkscape:connector-curvature="0"
       style="fill:#ffffff" /></g><g
     id="Layer_3"
     transform="translate(49,172)"><path
       stroke-miterlimit="10"
       d="m 681.13,308.194 c 0,0 9.305,-53.503 -27.914,-48.851 -37.219,4.653 -39.545,-19.772 -53.502,-23.261 -13.958,-3.489 -15.121,-32.567 -15.121,-32.567 0,0 -1.163,-26.751 -51.176,-32.566 0,0 -4.652,-12.794 0,-25.588 0,0 50.013,-74.438 5.816,-69.786 l -127.94,37.219 c 0,0 -48.85,-19.773 -74.438,-9.305 l -45.361,17.447 -36.056,25.588 c 0,0 -38.382,24.425 -37.219,30.24 0,0 -1.163,26.504 -67.459,48.145 l -74.438,37.924 c 0,0 -38.382,6.979 -13.957,37.219 0,0 24.425,34.893 37.218,46.524 0,0 20.936,5.815 15.121,17.447 0,0 0,15.12 22.098,16.282 l 73.274,8.142 c 0,0 51.177,9.305 51.177,31.403 0,22.1 43.035,27.915 59.318,29.078 l 25.588,0 c 0,0 16.284,-1.163 16.865,6.979 0,0 3.825,8.142 16.16,0 12.335,-8.142 25.13,3.619 25.13,3.619 l 1.163,11.501 c 0,0 9.305,13.958 24.425,0 0,0 196.562,-118.635 201.215,-122.125 4.652,-3.49 49.006,-29.131 50.013,-40.708 z"
       id="path3927"
       inkscape:connector-curvature="0"
       style="fill:none;stroke:#2053c8;stroke-width:20;stroke-miterlimit:10" /><path
       stroke-miterlimit="10"
       d="m 411.292,112.793 c 0,0 -48.85,-19.773 -74.438,-9.305 l -45.361,17.447 -36.056,25.588 c 0,0 -7.867,5.006 -16.369,11.025"
       id="path3929"
       inkscape:connector-curvature="0"
       style="fill:none;stroke:#2053c8;stroke-width:20;stroke-miterlimit:10" /><path
       d="m 442.059,103.843 9.573,-2.785 L 428.739,59.29 C 406.204,17.419 386.868,44.17 386.868,44.17 c -18.61,1.164 -95.374,76.765 -95.374,76.765 l 45.361,-17.447 c 3.242,-1.326 6.857,-2.168 10.702,-2.625 l 0,0.001 c 0,0 45.674,-37.635 64.899,-36.921 0,0 1.163,-11.064 29.077,38.083"
       id="path3931"
       inkscape:connector-curvature="0"
       style="fill:#2053c8" /></g><g
     id="Layer_2"
     transform="translate(49,172)"><path
       d="m 557.317,92.157 c -2.067,20.708 -23.9,53.203 -23.9,53.203 -4.652,12.794 0,25.588 0,25.588 50.013,5.815 51.176,32.566 51.176,32.566 0,0 1.164,29.078 15.121,32.567 13.957,3.489 16.283,27.915 53.502,23.261 37.219,-4.652 27.914,48.851 27.914,48.851 -1.008,11.577 -45.361,37.218 -50.013,40.708 -4.653,3.489 -201.215,122.125 -201.215,122.125 -15.121,13.958 -24.425,0 -24.425,0 l -1.163,-11.501 c 0,0 -12.794,-11.76 -25.13,-3.619 -12.335,8.142 -16.16,0 -16.16,0 -0.582,-8.142 -16.865,-6.979 -16.865,-6.979 l -25.588,0 c -16.283,-1.163 -59.318,-6.978 -59.318,-29.078 0,-22.098 -51.177,-31.403 -51.177,-31.403 l -73.274,-8.142 C 114.704,379.141 114.704,364.022 114.704,364.022 120.519,352.391 99.583,346.575 99.583,346.575 86.79,334.944 62.365,300.051 62.365,300.051 37.94,269.81 76.322,262.832 76.322,262.832 l 74.438,-37.924 c 66.296,-21.641 67.459,-48.145 67.459,-48.145 -0.636,-3.182 10.572,-11.938 20.85,-19.215 9.112,-6.724 43.12,0.606 43.12,0.606 0,0 34.893,-2.326 51.176,20.936 l 52.339,36.056 c 0,0 50.013,20.936 12.794,53.502 0,0 -33.73,28.092 -90.722,7.648 0,0 -59.636,-23.614 -95.374,-42.541 -35.737,-18.928 -16.284,-2.327 -32.567,3.489 l -65.133,25.588 c 0,0 19.771,-0.035 18.609,20.918 0,0 -2.326,17.464 -23.262,27.931 0,0 -17.53,-30.317 -16.283,0 0,0 -5.729,2.038 -15.12,0 l 40.708,37.22 c 0,0 25.588,46.524 147.712,29.077 0,0 22.099,0 17.447,18.61 0,0 -1.164,18.608 29.077,15.12 0,0 12.793,-9.305 8.142,19.772 0,0 23.061,13.358 39.775,9.684 2.388,-0.524 4.646,-1.397 6.689,-2.705 16.343,-10.468 39.605,16.283 109.39,-59.318 0,0 22.1,-20.936 27.915,-25.588 0,0 16.283,-9.305 -5.815,-17.446 0,0 -23.335,-3.49 11.595,-31.404 0,0 19.736,-40.708 0,-36.056 0,0 -24.389,2.326 20.972,-24.425 0,0 20.937,-34.893 -26.751,-27.915 0,0 -44.198,8.142 -8.142,-31.403 0,0 9.73,-31.404 -45.729,-15.12 0,0 20.251,-69.186 105.684,-77.627"
       id="path3934"
       inkscape:connector-curvature="0"
       style="fill:#2053c8" /><path
       stroke-miterlimit="10"
       d="m 411.292,112.793 c 0,0 -37.254,-15.08 -63.736,-11.93 l -56.063,20.072 -36.056,25.588 c 0,0 -7.867,5.006 -16.369,11.025"
       id="path3936"
       inkscape:connector-curvature="0"
       style="fill:none;stroke:#2053c8;stroke-width:10;stroke-linecap:round;stroke-miterlimit:10" /><path
       stroke-miterlimit="10"
       d="M 557.317,92.157 C 558.38,81.522 554.229,73.995 539.233,75.574 l -87.601,25.484 -9.573,2.785 -30.767,8.95"
       id="path3938"
       inkscape:connector-curvature="0"
       style="fill:none;stroke:#2053c8;stroke-width:10;stroke-linecap:round;stroke-linejoin:round;stroke-miterlimit:10" /></g><g
     id="Layer_4"
     transform="translate(49,172)"><path
       d="m 262.153,205.949 c 0,0 6.784,-17.444 32.949,-8.722 0,0 25.584,10.466 30.817,17.443 0,0 -49.618,13.18 -67.643,-0.775 l 3.877,-7.946 z"
       id="path3941"
       inkscape:connector-curvature="0"
       style="fill:#ffffff" /></g></svg>
