<?xml version="1.0" encoding="utf-8"?>
<!-- Generator: Adobe Illustrator 16.0.0, SVG Export Plug-In . SVG Version: 6.00 Build 0)  -->
<!DOCTYPE svg PUBLIC "-//W3C//DTD SVG 1.1//EN" "http://www.w3.org/Graphics/SVG/1.1/DTD/svg11.dtd">
<svg version="1.1" id="Layer_4" xmlns="http://www.w3.org/2000/svg" xmlns:xlink="http://www.w3.org/1999/xlink" x="0px" y="0px"
	 width="575px" height="571.667px" viewBox="0 0 575 571.667" enable-background="new 0 0 575 571.667" xml:space="preserve">
<circle fill="#10BABB" cx="291.521" cy="283.942" r="252"/>
<path fill="#10BABB" stroke="#FFFFFF" stroke-width="15" stroke-miterlimit="10" d="M267.887,401.751
	c0,0,6.93-5.331,0.896-22.79c-5.683-16.442,9.855-25.983,21.503-15.231s12.543,1.793,12.543,14.336c0,12.544,0,12.544,5.376,9.855
	s11.603-9.312,11.603,2.688c0,11.408,4.525,8.063,4.587,2.687c0.062-5.375,30.4-0.896,30.4-0.896l36.735,6.272
	c0,0,33.15-1.793,35.839,2.688c2.688,4.479,14.335,7.168,21.504,0c7.167-7.167,8.062-8.961,25.087-11.648
	c17.023-2.688,10.58-24.19,10.58-24.19l-14.164-16.128c0,0-10.752-15.231-13.44-19.712c-2.688-4.48-10.751-19.711-8.959-28.672
	c1.791-8.958-10.752-25.087-10.752-25.087s-23.295-29.566-29.568-39.423c-6.271-9.854-5.375-16.126-5.375-16.126
	s2.688-19.712,0-27.776c-2.688-8.063-9.855-20.607-18.815-7.167c-8.959,13.439-15.264,13.818-21.502,18.815
	c-7.436,5.954-41.216-11.648-49.28-22.399c-8.063-10.751-60.925-34.047-72.574-36.735c-11.648-2.688-25.087-2.688-25.087,0
	c0,2.688-6.271,4.48-14.335,4.48c-8.064,0-16.127-0.896-9.855,7.168c6.271,8.064,12.333,13.86-10.616,10.751
	c-18.152-2.459-8.201,0.896-4.617,6.271c3.584,5.376-55.727,6.215-74.435,21.656c-33.585,27.721-7.464,53.844-7.464,53.844
	S190.054,373.498,267.887,401.751z"/>
<path fill="#FFFFFF" d="M442.146,404.987c0.6-0.986,1.398-2.652,2.198-5.368c1.6-5.433,6.397-10.662,6.131-15.726
	c-0.063-1.213,0.132-2.471,0.466-3.683c1.065-3.854,3.532-7.247,3.532-7.247c0-5.597-4.265-10.396,8.796-5.864
	c13.062,4.532,0-9.861,0-9.861s-4.265-4.532-5.597-3.999c-1.333,0.533-12.262-8.797-12.262-8.797s0,0-2.933-2.665
	c-5.916-5.379-7.729-13.061-16.259-13.594c-8.53-0.533-7.464,3.731-10.129,23.456c-2.666,19.725-6.819,3.159-7.463-2.665
	c-0.235-2.12,3.198-25.589-9.597-27.722c-12.794-2.132-10.662-2.132-6.931-8.53c3.731-6.396,0-9.062-8.529-14.393
	c-8.529-5.332-9.596-18.659,4.798-23.888c14.394-5.229,4.799-19.828,5.331-23.026c0.533-3.198-10.662-18.125-10.662-18.125
	s-13.861-7.464-17.06-14.394c-3.198-6.93-10.662-2.666-10.662-2.666s-4.265,1.066-12.794-3.199
	c-7.291-3.646-20.075-21.054-24.522-26.122l-0.115,0.144c12.419,10.303,37.762,22.252,44.081,17.193
	c6.238-4.998,12.543-5.376,21.502-18.815c8.96-13.439,16.127-0.896,18.815,7.167c2.688,8.064,0,27.776,0,27.776
	s-0.896,6.272,5.375,16.126c6.273,9.856,29.568,39.423,29.568,39.423s12.543,16.128,10.752,25.087
	c-1.792,8.96,6.271,24.191,8.959,28.672c2.688,4.48,13.44,19.712,13.44,19.712l14.164,16.128c0,0,6.443,21.502-10.58,24.19
	c-17.024,2.688-17.253,7.053-24.419,14.22c-2.287,2.289-6.765,1-9.527,1.541"/>
<path fill="#FFFFFF" d="M445.688,401.156c0,0-13.056-4.142-13.056-8.634c0-4.489-6.548-6.179-6.548-6.179
	s-10.697,0.489-10.697-3.253c0-3.744-7.571-12.722-15.983-14.219c-8.413-1.499-32.809-10.776-40.801-14.668
	c-7.991-3.891-15.142-29.338-23.134-43.107c-7.991-13.771-7.991-36.223-6.309-42.21c1.683-5.986,15.562-29.635,13.039-34.425
	c-2.525-4.79,1.682-14.669-18.508-11.375c-20.189,3.292-19.77-0.898-28.602-2.994c-8.832-2.095-11.776-5.987-18.507,0
	s-4.627,7.185,2.096,14.07c6.725,6.885,17.252,10.478,2.111,18.561c-15.144,8.082,8.413,12.872,8.413,12.872
	c30.284,15.867,1.26,26.942-17.667,26.045c-18.927-0.9-16.824,13.469,3.424,17.063c20.25,3.592,18.689,5.987,18.689,5.987
	s4.806,13.471-4.446,16.764c-9.255,3.295-10.938,0.598-24.396,1.497c-13.46,0.897-12.619,2.395,0,12.274
	c12.62,9.876,0,23.647-0.002,23.649c5.519-11.606,33.47-4.864,33.47,3.718c0,14.085,1.447,19.754,9.932,16.734
	c8.482-3.018,10.552-13.183,10.552,0.295c0,12.812,7.139,9.056,7.237,3.019c0.099-6.04,25.898,1.657,25.898,1.657l57.968,7.042
	C409.862,401.338,436.881,405.787,445.688,401.156z"/>
<path id="XMLID_1_" fill="#10BABB" d="M431.55,296.197c0,0-9.597-17.592-23.457-9.596c-13.86,7.997-8.415,5.894-8.415,5.894
	S407.56,306.326,431.55,296.197z"/>
</svg>
