<?xml version="1.0" encoding="UTF-8" standalone="no"?>
<!-- Generator: Adobe Illustrator 16.0.0, SVG Export Plug-In . SVG Version: 6.00 Build 0)  -->

<svg
   xmlns:dc="http://purl.org/dc/elements/1.1/"
   xmlns:cc="http://creativecommons.org/ns#"
   xmlns:rdf="http://www.w3.org/1999/02/22-rdf-syntax-ns#"
   xmlns:svg="http://www.w3.org/2000/svg"
   xmlns="http://www.w3.org/2000/svg"
   xmlns:sodipodi="http://sodipodi.sourceforge.net/DTD/sodipodi-0.dtd"
   xmlns:inkscape="http://www.inkscape.org/namespaces/inkscape"
   version="1.1"
   x="0px"
   y="0px"
   width="560"
   height="560"
   viewBox="0 0 560.00001 560"
   enable-background="new 0 0 458.667 406"
   xml:space="preserve"
   id="svg4062"
   inkscape:version="0.91 r13725"
   sodipodi:docname="line-61-moose.svg"><metadata
     id="metadata4088"><rdf:RDF><cc:Work
         rdf:about=""><dc:format>image/svg+xml</dc:format><dc:type
           rdf:resource="http://purl.org/dc/dcmitype/StillImage" /><dc:title></dc:title></cc:Work></rdf:RDF></metadata><defs
     id="defs4086" /><sodipodi:namedview
     pagecolor="#FF7C10"
     bordercolor="#666666"
     borderopacity="1"
     objecttolerance="10"
     gridtolerance="10"
     guidetolerance="10"
     inkscape:pageopacity="0"
     inkscape:pageshadow="2"
     inkscape:window-width="933"
     inkscape:window-height="654"
     id="namedview4084"
     showgrid="false"
     fit-margin-top="0"
     fit-margin-left="0"
     fit-margin-right="0"
     fit-margin-bottom="0"
     inkscape:zoom="0.58128079"
     inkscape:cx="280.03349"
     inkscape:cy="280"
     inkscape:window-x="0"
     inkscape:window-y="0"
     inkscape:window-maximized="0"
     inkscape:current-layer="svg4062" /><circle
     cx="280"
     cy="280"
     r="270"
     style="fill:#FF7C10;stroke:#FFFFFF;stroke-width:0"
     id="circle4064" /><g
     id="Layer_2"
     transform="translate(50.699997,77)"><path
       stroke-miterlimit="10"
       d="M 420,226 301,177 c 0,0 24,-22 0,-13 0,0 -37,4 -43,-16 -6,-20 -4,0 -4,0 0,0 -1,-14 14,-13 0,0 31,-27 49,-27 0,0 12,-9 12,-21 0,-12 40,-27 40,-27 0,0 5,-7 -9,-9 -14,-2 -3,-6 1,-10 4,-4 33,-31 -5,-8 -38,23 -19.16,16 -19.16,16 0,0 -21.84,13 -13.84,-8 0,0 9,-28 -8,1 -17,29 -8,16 -8,1 l -5,-8 c 0,0 -1,-26 -9,8 0,0 -6,23 -5,26 1,3 -2,15 -11,3 0,0 -8,-30 -10,2 0,0 3,7 9,17 0,0 17,20 -8,26 0,0 -25,17 -76,-5 0,0 -12,-8 -5,-18 0,0 8,-38 -10,-33 -18,5 -6,1 0,11 6,10 8,13 2,24 -6,11 -13,-1 -21,-7 -8,-6 -27,-27 -11,7 0,0 14,12 42,24 0,0 37,8 39,29 l -12,-3 c 0,0 -11,6 -18,12 -7,6 -8,10 -39,20 0,0 -22,1 -36,-7 -14,-8 -64,9 -74,13 0,0 -33,19 -12,57 0,0 23,41 63,28 0,0 61.345,-34.801 82,22 4,11 12.123,40.366 4,11 0,0 21.008,-31 39.004,-30 C 243,273 308,348 308,348 c 0,0 14,9 48,-8 34,-17 77,-85 64,-114 z"
       id="path4067"
       inkscape:connector-curvature="0"
       style="fill:#FF7C10;stroke:#FFFFFF;stroke-width:10;stroke-miterlimit:10" /></g><g
     id="Layer_3"
     transform="translate(50.699997,77)"><path
       stroke-miterlimit="10"
       d="m 264.709,157 c -3.094,-2.455 -5.491,-5.623 -6.715,-9.701 -6.579,-21.933 -4.386,0 -4.386,0 0,0 -1.097,-15.353 15.353,-14.256 0,0 33.995,-29.609 53.734,-29.609 0,0 13.16,-9.87 13.16,-23.029 0,-13.159 43.865,-29.609 43.865,-29.609 0,0 5.483,-7.676 -9.87,-9.87 -15.353,-2.193 -3.289,-6.58 1.097,-10.966 4.387,-4.387 36.189,-33.996 -5.482,-8.773 -41.673,25.222 -21.012,17.546 -21.012,17.546 0,0 -23.95,14.256 -15.178,-8.773 0,0 9.87,-30.706 -8.772,1.097 -18.644,31.802 -8.773,17.546 -8.773,1.097 l -5.483,-8.773 c 0,0 -1.097,-28.512 -9.869,8.773 0,0 -6.58,25.222 -5.483,28.512 1.097,3.29 -2.193,16.45 -12.063,3.29 0,0 -8.772,-32.899 -10.966,2.193 0,0 3.29,7.676 9.869,18.643 0,0 18.644,21.933 -8.772,28.512 0,0 -27.416,18.643 -83.344,-5.483 0,0 -13.16,-8.773 -5.483,-19.739 0,0 8.773,-41.672 -10.966,-36.189 -19.74,5.483 -6.58,1.097 0,12.063 6.58,10.966 8.773,14.256 2.193,26.319 -6.58,12.063 -14.256,-1.096 -23.029,-7.676 -8.773,-6.58 -29.609,-29.609 -12.063,7.676 0,0 15.353,13.16 46.059,26.319 0,0 27.416,5.483 29.609,28.513 L 264.709,157 Z"
       id="path4070"
       inkscape:connector-curvature="0"
       style="fill:#FFFFFF;stroke:#FFFFFF;stroke-width:10.96630001;stroke-miterlimit:10" /><path
       stroke-miterlimit="10"
       d="M 264.123,156.846 C 276.479,166.651 301,164 301,164 c 24,-9 0,13 0,13 l 119,49 c 13,29 -30,97 -64,114 -34,17 -48,8 -48,8 0,0 -65,-75 -82.996,-76 -17.996,-1 -34.961,24.562 -34.961,24.562 0,0 -4.043,5.438 -5.651,2.578 -1.251,-2.226 -1.517,-5.155 -2.392,-8.14 -17,-58 -82,-22 -82,-22 -40,13 -63,-28 -63,-28 -21,-38 12,-57 12,-57 10,-4 60,-21 74,-13 14,8 36,7 36,7 31,-10 32,-14 39,-20 7,-6 18,-12 18,-12 l 12,3"
       id="path4072"
       inkscape:connector-curvature="0"
       style="fill:none;stroke:#FFFFFF;stroke-width:10;stroke-miterlimit:10" /><path
       d="m 245,183 c 0,0 25,-13 32,-10 7,3 -16,16 -16,16 l -10,5 -6,-11 z"
       id="path4074"
       inkscape:connector-curvature="0"
       style="fill:#FFFFFF" /><path
       d="m 194,162 c 0,0 36.385,8.551 32.192,21.275 l -4.192,0 c 0,0 -28,3.655 -45,-5.81"
       id="path4076"
       inkscape:connector-curvature="0"
       style="fill:#FFFFFF" /><path
       d="M 422.377,230.5 C 424.754,257 405,282 405,282 L 405,248.19 397.921,268 397,248.19 c 5,-25.81 -14,21.81 -14,21.81 0,0 2,-30 2,-21.81 0,8.19 -26,19.81 -26,19.81 11,-22 10,-32 10,-32 -7,9 -17,8 -17,8 l 0,-17 c -3,-23 -14,0 -14,0 -11,17 -10,-7 -10,-7 l 5,-20.5 c 0,0 1,18.5 0,5.5 -1,-13 -12,6 -12,6 -5,8 -13,9 -13,9 3,-1 4,-21 4,-21 -9,-8 -25,8 -25,8 -3.666,-21.997 7.666,-31.336 6,-28"
       id="path4078"
       inkscape:connector-curvature="0"
       style="fill:#FFFFFF" /><path
       d="m 312.332,351.888 c 0,0 -26.326,42 -37.663,30.5 0,0 10.337,-5.5 0,-22.5 0,0 -2.337,-3.506 -8.837,8.247 -6.5,11.753 -7.826,-13.247 -7.826,-13.247 l 2.326,-15.5 c 0,0 3,-10 -8,5 l -6,13.5 c 0,0 -8.031,-24 3.734,-30 11.765,-6 -10.734,-14.5 -10.734,-14.5 0,0 -10.5,3 -7,12.5 0,0 5,28 -8.5,-3 l 0,-21 0,-11 c 0,0 -6,-7.5 -10.5,9.5 -4.5,17 -9,11 -9.5,1.5 -0.5,-9.5 4.5,-25.5 4.5,-25.5 l 7.996,-5.38 16.2,7.149"
       id="path4080"
       inkscape:connector-curvature="0"
       style="fill:#FFFFFF" /><path
       d="m 135,208.667 c 0,0 -23.308,17.748 -66,-4 -41.992,-21.391 -12,1.128 -7.333,8.897 4.667,7.769 9.333,11.103 9.333,11.103 l -12,0 c 0,0 -9.333,-1.322 2,12.339 11.333,13.661 14,4.994 14,4.994 0,0 -3.333,16 -9.333,10 -6,-6 -3.333,6.667 10,6 13.333,-0.667 62.115,-45.333 62.115,-45.333"
       id="path4082"
       inkscape:connector-curvature="0"
       style="fill:#FFFFFF" /></g></svg>
