<?xml version="1.0" encoding="utf-8"?>
<!-- Generator: Adobe Illustrator 16.0.0, SVG Export Plug-In . SVG Version: 6.00 Build 0)  -->
<!DOCTYPE svg PUBLIC "-//W3C//DTD SVG 1.1//EN" "http://www.w3.org/Graphics/SVG/1.1/DTD/svg11.dtd">
<svg version="1.1" id="Layer_4" xmlns="http://www.w3.org/2000/svg" xmlns:xlink="http://www.w3.org/1999/xlink" x="0px" y="0px"
	 width="575px" height="571.667px" viewBox="0 0 575 571.667" enable-background="new 0 0 575 571.667" xml:space="preserve">
<circle fill="#2053C8" stroke="#FFFFFF" stroke-width="15" cx="291.521" cy="283.942" r="252"/>
<path fill="#FFFFFF" d="M244.696,173.278l-54.36-15.814c-9.306-0.979-11.882,3.691-11.222,10.291"/>
<path fill="#FFFFFF" d="M376.602,208.333c-5.275-3.735-10.157-6.841-10.157-6.841l-22.374-15.879"/>
<path fill="#2053C8" d="M349.844,208.709c0,0,21.104-4.549,26.758-0.376c6.379,4.516,13.333,9.949,12.939,11.924
	c0,0,0.721,16.447,41.862,29.876l46.191,23.534c0,0,23.816,4.331,8.661,23.096c0,0-15.156,21.652-23.098,28.871
	c0,0-12.99,3.609-9.381,10.826c0,0,0,9.383-13.713,10.104l-45.471,5.052c0,0-31.758,5.775-31.758,19.488
	c0,13.714-26.706,17.321-36.811,18.043h-15.879c0,0-10.104-0.722-10.465,4.332c0,0-2.373,5.051-10.028,0
	c-7.654-5.054-15.594,2.245-15.594,2.245l-0.722,7.136c0,0-5.774,8.663-15.157,0c0,0-121.977-73.617-124.864-75.783
	c-2.886-2.165-30.41-18.078-31.035-25.261c0,0-5.774-33.202,17.322-30.315c23.096,2.888,24.54-12.269,33.201-14.435
	c8.662-2.165,9.383-20.209,9.383-20.209s0.722-16.6,31.758-20.208c0,0,2.887-7.94,0-15.879c0,0-13.548-20.165-14.831-33.015
	c-0.66-6.6,1.916-11.27,11.222-10.291l54.36,15.814l14.206-25.919c13.985-25.983,25.983-9.382,25.983-9.382
	c11.548,0.722,59.185,47.636,59.185,47.636l22.374,15.879c0,0,4.882,3.106,10.157,6.841"/>
<path fill="none" stroke="#FFFFFF" stroke-width="12.411" stroke-miterlimit="10" d="M102.282,301.816
	c0,0-5.774-33.202,17.322-30.315c23.096,2.888,24.54-12.269,33.201-14.435c8.662-2.165,9.383-20.209,9.383-20.209
	s0.722-16.6,31.758-20.208c0,0,2.887-7.94,0-15.879c0,0-31.036-46.192-3.609-43.306l79.393,23.096c0,0,30.314-12.27,46.193-5.773
	l28.148,10.826l22.374,15.879c0,0,23.817,15.157,23.097,18.765c0,0,0.721,16.447,41.862,29.876l46.191,23.534
	c0,0,23.816,4.331,8.661,23.096c0,0-15.156,21.652-23.098,28.871c0,0-12.99,3.609-9.381,10.826c0,0,0,9.383-13.713,10.104
	l-45.471,5.052c0,0-31.758,5.775-31.758,19.488c0,13.714-26.706,17.321-36.811,18.043h-15.879c0,0-10.104-0.722-10.465,4.332
	c0,0-2.373,5.051-10.028,0c-7.654-5.054-15.594,2.245-15.594,2.245l-0.722,7.136c0,0-5.774,8.663-15.157,0
	c0,0-121.977-73.617-124.864-75.783C130.431,324.912,102.907,308.999,102.282,301.816z"/>
<path fill="none" stroke="#FFFFFF" stroke-width="12.411" stroke-miterlimit="10" d="M269.729,180.56c0,0,30.314-12.27,46.193-5.773
	l28.148,10.826l22.374,15.879c0,0,4.882,3.106,10.157,6.841"/>
<path fill="#FFFFFF" d="M250.637,175.006l-5.94-1.728l14.206-25.919c13.985-25.983,25.983-9.382,25.983-9.382
	c11.548,0.722,59.185,47.636,59.185,47.636l-28.148-10.826c-2.012-0.824-4.256-1.346-6.642-1.629v0.001
	c0,0-28.344-23.354-40.273-22.911c0,0-0.722-6.866-18.044,23.632"/>
<path fill="#FFFFFF" d="M179.114,167.754c1.283,12.851,14.831,33.015,14.831,33.015c2.887,7.939,0,15.879,0,15.879
	c-31.036,3.608-31.758,20.208-31.758,20.208s-0.721,18.044-9.383,20.209c-8.661,2.166-10.105,17.323-33.201,14.435
	c-23.096-2.887-17.322,30.315-17.322,30.315c0.625,7.183,28.149,23.096,31.035,25.261c2.887,2.166,124.864,75.783,124.864,75.783
	c9.383,8.663,15.157,0,15.157,0l0.722-7.136c0,0,7.94-7.299,15.594-2.245c7.655,5.051,10.028,0,10.028,0
	c0.361-5.054,10.465-4.332,10.465-4.332h15.879c10.104-0.722,36.811-4.329,36.811-18.043c0-13.713,31.758-19.488,31.758-19.488
	l45.471-5.052c13.713-0.722,13.713-10.104,13.713-10.104c-3.609-7.217,9.381-10.826,9.381-10.826
	c7.941-7.218,23.098-28.871,23.098-28.871c15.155-18.765-8.661-23.096-8.661-23.096l-46.191-23.534
	c-41.142-13.429-41.862-29.876-41.862-29.876c0.394-1.975-6.561-7.409-12.939-11.924c-5.654-4.172-26.758,0.376-26.758,0.376
	s-21.652-1.444-31.758,12.992l-32.479,22.374c0,0-31.036,12.992-7.939,33.201c0,0,20.931,17.433,56.297,4.747
	c0,0,37.007-14.654,59.185-26.399c22.176-11.745,10.104-1.444,20.209,2.165l40.419,15.879c0,0-12.271-0.022-11.55,12.98
	c0,0,1.443,10.838,14.436,17.333c0,0,10.88-18.813,10.104,0c0,0,3.556,1.265,9.384,0l-25.263,23.096
	c0,0-15.879,28.871-91.662,18.044c0,0-13.713,0-10.827,11.549c0,0,0.723,11.547-18.043,9.382c0,0-7.938-5.773-5.052,12.271
	c0,0-14.311,8.288-24.683,6.008c-1.482-0.324-2.883-0.866-4.15-1.678c-10.143-6.495-24.578,10.104-67.883-36.81
	c0,0-13.713-12.992-17.322-15.878c0,0-10.104-5.774,3.608-10.827c0,0,14.48-2.166-7.195-19.488c0,0-12.248-25.261,0-22.374
	c0,0,15.134,1.443-13.014-15.157c0,0-12.993-21.653,16.601-17.322c0,0,27.426,5.053,5.052-19.487c0,0-6.038-19.488,28.377-9.383
	C244.696,215.926,232.13,172.994,179.114,167.754"/>
<path fill="none" stroke="#FFFFFF" stroke-width="6.2055" stroke-linecap="round" stroke-miterlimit="10" d="M269.729,180.56
	c0,0,23.119-9.357,39.552-7.403l34.79,12.456l22.374,15.879c0,0,4.882,3.106,10.157,6.841"/>
<path fill="none" stroke="#FFFFFF" stroke-width="6.2055" stroke-linecap="round" stroke-linejoin="round" stroke-miterlimit="10" d="
	M179.114,167.754c-0.66-6.6,1.916-11.27,11.222-10.291l54.36,15.814l5.94,1.728l19.092,5.554"/>
<path fill="#2053C8" d="M362.276,238.368c0,0-4.209-10.825-20.445-5.413c0,0-15.877,6.495-19.124,10.824
	c0,0,30.791,8.179,41.976-0.481L362.276,238.368z"/>
</svg>
