<?xml version="1.0" encoding="utf-8"?>
<!-- Generator: Adobe Illustrator 16.0.0, SVG Export Plug-In . SVG Version: 6.00 Build 0)  -->
<!DOCTYPE svg PUBLIC "-//W3C//DTD SVG 1.1//EN" "http://www.w3.org/Graphics/SVG/1.1/DTD/svg11.dtd">
<svg version="1.1" xmlns="http://www.w3.org/2000/svg" xmlns:xlink="http://www.w3.org/1999/xlink" x="0px" y="0px" width="575px"
	 height="571.667px" viewBox="0 0 575 571.667" enable-background="new 0 0 575 571.667" xml:space="preserve">
<g id="Layer_4">
	<circle fill="#FF7C10" cx="291.52" cy="283.942" r="263"/>
</g>
<g id="Layer_2">
	<path fill="#FF7C10" stroke="#FFFFFF" stroke-width="10" stroke-miterlimit="10" d="M119.584,326.667l119-49c0,0-24-22,0-13
		c0,0,37,4,43-16s4,0,4,0s1-14-14-13c0,0-31-27-49-27c0,0-12-9-12-21s-40-27-40-27s-5-7,9-9s3-6-1-10s-33-31,5-8s19.16,16,19.16,16
		s21.84,13,13.84-8c0,0-9-28,8,1s8,16,8,1l5-8c0,0,1-26,9,8c0,0,6,23,5,26s2,15,11,3c0,0,8-30,10,2c0,0-3,7-9,17c0,0-17,20,8,26
		c0,0,25,17,76-5c0,0,12-8,5-18c0,0-8-38,10-33s6,1,0,11s-8,13-2,24s13-1,21-7s27-27,11,7c0,0-14,12-42,24c0,0-37,8-39,29l12-3
		c0,0,11,6,18,12s8,10,39,20c0,0,22,1,36-7s64,9,74,13c0,0,33,19,12,57c0,0-23,41-63,28c0,0-61.346-34.801-82,22
		c-4,11-12.123,40.366-4,11c0,0-21.008-31-39.004-30s-82.996,76-82.996,76s-14,9-48-8S106.584,355.667,119.584,326.667z"/>
</g>
<g id="Layer_3">
	<path fill="#FFFFFF" stroke="#FFFFFF" stroke-width="10.9663" stroke-miterlimit="10" d="M274.875,257.667
		c3.094-2.455,5.491-5.623,6.715-9.701c6.579-21.933,4.386,0,4.386,0s1.097-15.353-15.353-14.256c0,0-33.995-29.609-53.734-29.609
		c0,0-13.16-9.87-13.16-23.029s-43.865-29.609-43.865-29.609s-5.483-7.676,9.87-9.87c15.353-2.193,3.289-6.58-1.097-10.966
		c-4.387-4.387-36.189-33.996,5.482-8.773c41.673,25.222,21.012,17.546,21.012,17.546s23.95,14.256,15.178-8.773
		c0,0-9.87-30.706,8.772,1.097c18.644,31.802,8.773,17.546,8.773,1.097l5.483-8.773c0,0,1.097-28.512,9.869,8.773
		c0,0,6.58,25.222,5.483,28.512s2.193,16.45,12.063,3.29c0,0,8.772-32.899,10.966,2.193c0,0-3.29,7.676-9.869,18.643
		c0,0-18.644,21.933,8.772,28.512c0,0,27.416,18.643,83.344-5.483c0,0,13.16-8.773,5.483-19.739c0,0-8.772-41.672,10.966-36.189
		c19.74,5.483,6.58,1.097,0,12.063c-6.579,10.966-8.772,14.256-2.192,26.319c6.579,12.063,14.256-1.096,23.029-7.676
		c8.772-6.58,29.608-29.609,12.063,7.676c0,0-15.354,13.16-46.059,26.319c0,0-27.416,5.483-29.609,28.513L274.875,257.667z"/>
	<path fill="none" stroke="#FFFFFF" stroke-width="10" stroke-miterlimit="10" d="M275.461,257.512
		c-12.355,9.805-36.877,7.154-36.877,7.154c-24-9,0,13,0,13l-119,49c-13,29,30,97,64,114s48,8,48,8s65-75,82.996-76
		s34.961,24.562,34.961,24.562s4.043,5.438,5.651,2.578c1.251-2.226,1.517-5.155,2.392-8.14c17-58,82-22,82-22c40,13,63-28,63-28
		c21-38-12-57-12-57c-10-4-60-21-74-13s-36,7-36,7c-31-10-32-14-39-20s-18-12-18-12l-12,3"/>
	<path fill="#FFFFFF" d="M294.584,283.667c0,0-25-13-32-10s16,16,16,16l10,5L294.584,283.667z"/>
	<path fill="#FFFFFF" d="M345.584,262.667c0,0-36.385,8.551-32.192,21.275h4.192c0,0,28,3.655,45-5.81"/>
	<path fill="#FFFFFF" d="M117.207,331.167c-2.377,26.5,17.377,51.5,17.377,51.5v-33.81l7.079,19.81l0.921-19.81
		c-5-25.81,14,21.81,14,21.81s-2-30-2-21.81s26,19.81,26,19.81c-11-22-10-32-10-32c7,9,17,8,17,8v-17c3-23,14,0,14,0
		c11,17,10-7,10-7l-5-20.5c0,0-1,18.5,0,5.5s12,6,12,6c5,8,13,9,13,9c-3-1-4-21-4-21c9-8,25,8,25,8c3.666-21.997-7.666-31.336-6-28"
		/>
	<path fill="#FFFFFF" d="M227.252,452.554c0,0,26.326,42,37.663,30.5c0,0-10.337-5.5,0-22.5c0,0,2.337-3.506,8.837,8.247
		s7.826-13.247,7.826-13.247l-2.326-15.5c0,0-3-10,8,5l6,13.5c0,0,8.031-24-3.734-30s10.734-14.5,10.734-14.5s10.5,3,7,12.5
		c0,0-5,28,8.5-3v-21v-11c0,0,6-7.5,10.5,9.5s9,11,9.5,1.5s-4.5-25.5-4.5-25.5l-7.996-5.38l-16.2,7.149"/>
	<path fill="#FFFFFF" d="M404.584,309.333c0,0,23.309,17.748,66-4c41.992-21.391,12,1.128,7.333,8.897s-9.333,11.103-9.333,11.103
		h12c0,0,9.334-1.322-2,12.339s-14,4.994-14,4.994s3.333,16,9.333,10s3.333,6.667-10,6s-62.115-45.333-62.115-45.333"/>
</g>
</svg>
